{"title":"Kingdom S02 (2007)","uid":12023411,"size":2060168826,"categoryP":"video","categoryS":"tv_shows","magnet":"?xt=urn:btih:fa3cb416256c577167c3bce2862b6d1eaf55699a&amp;dn=Kingdom+S02+%282007%29&amp;tr=udp%3A%2F%2Ftracker.openbittorrent.com%3A80&amp;tr=udp%3A%2F%2Fopen.demonii.com%3A1337&amp;tr=udp%3A%2F%2Ftracker.coppersurfer.tk%3A6969&amp;tr=udp%3A%2F%2Fexodus.desync.com%3A6969","seeders":1,"leechers":0,"uploader":"RedBaron58","files":6,"time":1434485240,"description":"Kingdom S02 (2007) (ITV) DVDRip x264 mp4\n  &lt;a href=&quot;\nhttp://www.imdb.com/title/tt0841961/&quot; rel=&quot;nofollow&quot; target=&quot;_NEW&quot;&gt;\nhttp://www.imdb.com/title/tt0841961/&lt;/a&gt;\n\nTrailer:\n\n\nThank you for your kind comments and feedback on my other torrents, your feedback is welcome.\n\n\nAbout the Series:\nRespected country solicitor Peter Kingdom, with the assistance of his apprentice Lyle and secretary \nGloria, runs a small legal practice in Market Shipborough for the eccentric people of Norfolk. \nSimon returns in the second series and is charged with faking his own death. He is released from \ncustody after Lyle uses Simon's own money to bail him, and when Simon reveals he was actually \nattempting suicide. Beatrice learns that she is pregnant, so she leaves Market Shipborough \nuntil the baby is born.\n\nStarring Stephen Fry, Karl Davies, Celia Imrie, Tony Slattery and Hermione Norris\n\n\nI hope you enjoy.\n\nTechnical (All episodes encoded to the same settings)\n\nGeneral\nComplete name                            : H:Kingdom S02 (2007)Kingdom S02E01 x264 RB58.mp4\nFormat                                   : MPEG-4\nFormat profile                           : Base Media / Version 2\nCodec ID                                 : mp42\nFile size                                : 328 MiB\nDuration                                 : 45mn 50s\nOverall bit rate mode                    : Variable\nOverall bit rate                         : 1 001 Kbps\nEncoded date                             : UTC 2015-06-15 10:30:27\nTagged date                              : UTC 2015-06-15 10:43:49\nWriting application                      : HandBrake 0.9.9 2013052900\n\nVideo\nID                                       : 1\nFormat                                   : AVC\nFormat/Info                              : Advanced Video Codec\nFormat profile                           : &lt;a class=&quot;__cf_email__&quot; href=&quot;/cdn-cgi/l/email-protection&quot; data-cfemail=&quot;7a371b13143a364e544a&quot;&gt;[email&amp;#160;protected]&lt;/a&gt;&lt;script data-cfhash='f9e31' type=&quot;text/javascript&quot;&gt;\n/* &lt;![CDATA[ */!function(){try{var t=&quot;currentScript&quot;in document?document.currentScript:function(){for(var t=document.getElementsByTagName(&quot;script&quot;),e=t.length;e--;)if(t[e].getAttribute(&quot;data-cfhash&quot;))return t[e]}();if(t&amp;&amp;t.previousSibling){var e,r,n,i,c=t.previousSibling,a=c.getAttribute(&quot;data-cfemail&quot;);if(a){for(e=&quot;&quot;,r=parseInt(a.substr(0,2),16),n=2;a.length-n;n+=2)i=parseInt(a.substr(n,2),16)^r,e+=String.fromCharCode(i);e=document.createTextNode(e),c.parentNode.replaceChild(e,c)}t.parentNode.removeChild(t);}}catch(u){}}()/* ]]&gt; */&lt;/script&gt;\nFormat settings, CABAC                   : Yes\nFormat settings, ReFrames                : 4 frames\nCodec ID                                 : avc1\nCodec ID/Info                            : Advanced Video Coding\nDuration                                 : 45mn 50s\nBit rate mode                            : Variable\nBit rate                                 : 900 Kbps\nWidth                                    : 720 pixels\nHeight                                   : 576 pixels\nDisplay aspect ratio                     : 16:9\nFrame rate mode                          : Constant\nFrame rate                               : 25.000 fps\nStandard                                 : PAL\nColor space                              : YUV\nChroma subsampling                       : 4:2:0\nBit depth                                : 8 bits\nScan type                                : Progressive\nBits/(Pixel*Frame)                       : 0.087\nStream size                              : 295 MiB (90%)\nWriting library                          : x264 core 130 r2273 b3065e6\nEncoding settings                        : cabac=1 / ref=1 / deblock=1:0:0\nEncoded date                             : UTC 2015-06-15 10:30:27\nTagged date                              : UTC 2015-06-15 10:43:49\nColor primaries                          : BT.601 PAL\nTransfer characteristics                 : BT.709\nMatrix coefficients                      : BT.601\n\nAudio\nID                                       : 2\nFormat                                   : AAC\nFormat/Info                              : Advanced Audio Codec\nFormat profile                           : LC\nCodec ID                                 : 40\nDuration                                 : 45mn 50s\nBit rate mode                            : Variable\nBit rate                                 : 96.0 Kbps\nMaximum bit rate                         : 136 Kbps\nChannel(s)                               : 2 channels\nChannel positions                        : Front: L R\nSampling rate                            : 48.0 KHz\nCompression mode                         : Lossy\nDelay relative to video                  : 80ms\nStream size                              : 31.5 MiB (10%)\nLanguage                                 : English\nEncoded date                             : UTC 2015-06-15 10:30:27\nTagged date                              : UTC 2015-06-15 10:43:47","torrent":{"xt":"urn:btih:fa3cb416256c577167c3bce2862b6d1eaf55699a","amp;dn":"Kingdom+S02+%282007%29","amp;tr":["udp%3A%2F%2Ftracker.openbittorrent.com%3A80","udp%3A%2F%2Fopen.demonii.com%3A1337","udp%3A%2F%2Ftracker.coppersurfer.tk%3A6969","udp%3A%2F%2Fexodus.desync.com%3A6969"],"infoHash":"fa3cb416256c577167c3bce2862b6d1eaf55699a","infoHashBuffer":{"type":"Buffer","data":[250,60,180,22,37,108,87,113,103,195,188,226,134,43,109,30,175,85,105,154]},"announce":[],"urlList":[]}}